<svg width="1355" height="303" viewBox="0 0 1355 303" fill="none" xmlns="http://www.w3.org/2000/svg">
<path d="M0.231125 297.339V255.789L136.329 46.3429H1.50307V0.553096H199.502V42.1031L62.5561 251.125H200.35V297.339H0.231125ZM308.501 302.427C286.454 302.427 267.375 297.622 251.264 288.011C235.435 278.401 223.14 265.258 214.377 248.581C205.615 231.905 201.234 213.108 201.234 192.192C201.234 169.862 205.756 150.501 214.801 134.107C223.846 117.713 236.424 104.993 252.535 95.9485C268.647 86.621 287.302 81.9572 308.501 81.9572C329.417 81.9572 347.648 86.4797 363.194 95.5246C379.023 104.569 391.318 117.006 400.08 132.835C409.125 148.663 413.648 166.894 413.648 187.528C413.648 191.203 413.506 194.877 413.224 198.552C412.941 201.943 412.517 205.194 411.952 208.303H255.927C256.775 218.196 259.319 226.958 263.559 234.59C268.081 241.939 274.017 247.733 281.366 251.973C288.998 255.93 297.619 257.909 307.229 257.909C317.122 257.909 325.601 255.789 332.668 251.549C340.017 247.309 345.811 240.808 350.051 232.046H408.136C404.179 244.483 397.819 256.072 389.057 266.812C380.295 277.553 369.13 286.174 355.563 292.675C342.278 299.176 326.591 302.427 308.501 302.427ZM256.351 172.265H357.682C357.4 158.132 352.171 146.967 341.995 138.77C332.102 130.574 320.372 126.475 306.805 126.475C295.216 126.475 284.475 130.15 274.582 137.499C264.69 144.565 258.612 156.154 256.351 172.265ZM421.167 297.339V87.045H475.012V111.636C482.361 101.743 492.113 94.3939 504.267 89.5888C516.703 84.5011 529.14 81.9572 541.577 81.9572C565.885 81.9572 585.812 89.8715 601.358 105.7C616.904 121.246 624.677 143.858 624.677 173.537V297.339H570.832V180.744C570.832 164.916 566.733 152.196 558.536 142.586C550.622 132.693 538.892 127.747 523.346 127.747C507.8 127.747 495.787 132.693 487.308 142.586C479.111 152.196 475.012 164.916 475.012 180.744V297.339H421.167ZM638.042 297.339V0.553096H692.312V297.339H638.042ZM810.122 302.427C788.923 302.427 769.985 297.904 753.308 288.859C736.915 279.532 724.054 266.53 714.726 249.853C705.399 233.177 700.735 213.956 700.735 192.192C700.735 169.297 705.681 149.653 715.574 133.259C725.75 116.582 739.176 103.863 755.852 95.1006C772.811 86.3383 791.467 81.9572 811.818 81.9572C833.017 81.9572 851.954 86.621 868.631 95.9485C885.307 104.993 898.451 117.713 908.061 134.107C917.954 150.501 922.9 169.862 922.9 192.192C922.9 213.391 918.095 232.329 908.485 249.005C898.875 265.682 885.59 278.825 868.631 288.435C851.954 297.763 832.451 302.427 810.122 302.427ZM810.97 255.365C822.276 255.365 832.027 252.538 840.224 246.885C848.704 240.95 855.346 233.177 860.151 223.566C864.956 213.674 867.359 202.933 867.359 191.344C867.359 178.059 864.674 166.753 859.303 157.426C854.216 148.098 847.432 141.032 838.952 136.227C830.473 131.421 821.145 129.019 810.97 129.019C799.946 129.019 790.195 131.704 781.715 137.075C773.518 142.445 767.017 149.935 762.212 159.545C757.69 168.873 755.428 179.755 755.428 192.192C755.428 204.629 757.831 215.652 762.636 225.262C767.724 234.873 774.507 242.363 782.987 247.733C791.467 252.821 800.794 255.365 810.97 255.365ZM1158.66 297.339V0.553096H1212.93V176.081L1282.89 87.045H1352.84L1260.41 192.616L1354.11 297.339H1284.16L1212.93 207.879V297.339H1158.66Z" fill="url(#paint0_linear_1_985)"/>
<defs>
<linearGradient id="paint0_linear_1_985" x1="31.7097" y1="-27.6611" x2="1614.28" y2="275.71" gradientUnits="userSpaceOnUse">
<stop stop-color="#F8B3A2"/>
<stop offset="0.992598" stop-color="#EE4217"/>
</linearGradient>
</defs>
</svg>
