<svg width="154" height="34" viewBox="0 0 154 34" fill="none" xmlns="http://www.w3.org/2000/svg">
<path d="M0 33.0787V28.4477L15.169 5.10357H0.141766V0H22.21V4.63102L6.94653 27.9279H22.3045V33.0787H0Z" fill="#FAFAFA"/>
<path d="M34.8312 33.6458C32.3739 33.6458 30.2475 33.1102 28.4518 32.0391C26.6876 30.968 25.3172 29.5031 24.3405 27.6444C23.3639 25.7856 22.8756 23.6907 22.8756 21.3594C22.8756 18.8706 23.3797 16.7126 24.3878 14.8854C25.3959 13.0582 26.7978 11.6406 28.5935 10.6324C30.3892 9.59283 32.4685 9.07302 34.8312 9.07302C37.1625 9.07302 39.1945 9.57708 40.9272 10.5852C42.6914 11.5933 44.0618 12.9795 45.0384 14.7437C46.0465 16.5079 46.5505 18.5398 46.5505 20.8396C46.5505 21.2491 46.5348 21.6587 46.5033 22.0682C46.4718 22.4463 46.4245 22.8086 46.3615 23.1551H28.9716C29.0661 24.2577 29.3496 25.2343 29.8222 26.0849C30.3262 26.904 30.9878 27.5498 31.8069 28.0224C32.6575 28.4634 33.6183 28.684 34.6895 28.684C35.7921 28.684 36.7372 28.4477 37.5248 27.9751C38.3439 27.5026 38.9897 26.778 39.4622 25.8014H45.9362C45.4952 27.1876 44.7863 28.4792 43.8097 29.6763C42.8331 30.8735 41.5887 31.8343 40.0766 32.5589C38.5959 33.2835 36.8474 33.6458 34.8312 33.6458ZM29.0188 19.1384H40.3128C40.2813 17.5632 39.6985 16.3188 38.5644 15.4052C37.4618 14.4916 36.1544 14.0348 34.6422 14.0348C33.3506 14.0348 32.1534 14.4444 31.0508 15.2635C29.9482 16.0511 29.2708 17.3427 29.0188 19.1384Z" fill="#FAFAFA"/>
<path d="M47.8611 33.0787V9.64008H53.8626V12.3809C54.6816 11.2783 55.7685 10.4592 57.1232 9.92362C58.5093 9.35655 59.8955 9.07302 61.2816 9.07302C63.9909 9.07302 66.2119 9.95512 67.9446 11.7193C69.6773 13.452 70.5437 15.9723 70.5437 19.2802V33.0787H64.5423V20.0835C64.5423 18.3193 64.0854 16.9016 63.1718 15.8305C62.2897 14.7279 60.9824 14.1766 59.2497 14.1766C57.517 14.1766 56.1781 14.7279 55.233 15.8305C54.3194 16.9016 53.8626 18.3193 53.8626 20.0835V33.0787H47.8611Z" fill="#FAFAFA"/>
<path d="M72.5059 33.0787V0H78.5546V33.0787H72.5059Z" fill="#FAFAFA"/>
<path d="M92.1578 33.6458C89.7951 33.6458 87.6843 33.1417 85.8256 32.1336C83.9984 31.094 82.565 29.6448 81.5254 27.7861C80.4857 25.9274 79.9659 23.7852 79.9659 21.3594C79.9659 18.8076 80.5173 16.6181 81.6199 14.7909C82.754 12.9322 84.2504 11.5145 86.1091 10.5379C87.9993 9.56132 90.0786 9.07302 92.3468 9.07302C94.7096 9.07302 96.8203 9.59283 98.679 10.6324C100.538 11.6406 102.003 13.0582 103.074 14.8854C104.176 16.7126 104.728 18.8706 104.728 21.3594C104.728 23.7222 104.192 25.8329 103.121 27.6916C102.05 29.5503 100.569 31.0152 98.679 32.0864C96.8203 33.126 94.6466 33.6458 92.1578 33.6458ZM92.2523 28.4004C93.5125 28.4004 94.5993 28.0854 95.5129 27.4553C96.458 26.7938 97.1984 25.9274 97.7339 24.8563C98.2695 23.7537 98.5373 22.5565 98.5373 21.2649C98.5373 19.7842 98.238 18.5241 97.6394 17.4845C97.0724 16.4448 96.3163 15.6573 95.3712 15.1217C94.4261 14.5861 93.3864 14.3184 92.2523 14.3184C91.0237 14.3184 89.9368 14.6176 88.9917 15.2162C88.0781 15.8148 87.3535 16.6496 86.818 17.7207C86.3139 18.7604 86.0619 19.9732 86.0619 21.3594C86.0619 22.7456 86.3297 23.9742 86.8652 25.0453C87.4323 26.1164 88.1884 26.9513 89.1335 27.5498C90.0786 28.1169 91.1182 28.4004 92.2523 28.4004Z" fill="#FAFAFA"/>
<path d="M117.772 33.6458C115.409 33.6458 113.298 33.1417 111.439 32.1336C109.612 31.094 108.179 29.6448 107.139 27.7861C106.1 25.9274 105.58 23.7852 105.58 21.3594C105.58 18.8076 106.131 16.6181 107.234 14.7909C108.368 12.9322 109.864 11.5145 111.723 10.5379C113.613 9.56132 115.692 9.07302 117.961 9.07302C120.323 9.07302 122.434 9.59283 124.293 10.6324C126.152 11.6406 127.617 13.0582 128.688 14.8854C129.79 16.7126 130.342 18.8706 130.342 21.3594C130.342 23.7222 129.806 25.8329 128.735 27.6916C127.664 29.5503 126.183 31.0152 124.293 32.0864C122.434 33.126 120.26 33.6458 117.772 33.6458ZM117.866 28.4004C119.126 28.4004 120.213 28.0854 121.127 27.4553C122.072 26.7938 122.812 25.9274 123.348 24.8563C123.883 23.7537 124.151 22.5565 124.151 21.2649C124.151 19.7842 123.852 18.5241 123.253 17.4845C122.686 16.4448 121.93 15.6573 120.985 15.1217C120.04 14.5861 119 14.3184 117.866 14.3184C116.638 14.3184 115.551 14.6176 114.606 15.2162C113.692 15.8148 112.967 16.6496 112.432 17.7207C111.928 18.7604 111.676 19.9732 111.676 21.3594C111.676 22.7456 111.944 23.9742 112.479 25.0453C113.046 26.1164 113.802 26.9513 114.747 27.5498C115.692 28.1169 116.732 28.4004 117.866 28.4004Z" fill="#FAFAFA"/>
<path d="M131.95 33.0787V0H137.998V19.5637L145.796 9.64008H153.593L143.291 21.4067L153.734 33.0787H145.937L137.998 23.1078V33.0787H131.95Z" fill="#FAFAFA"/>
</svg>
