<svg width="105" height="24" viewBox="0 0 105 24" fill="none" xmlns="http://www.w3.org/2000/svg">
<path d="M0 23.4V20.264L10.272 4.456H0.0960001V1H15.04V4.136L4.704 19.912H15.104V23.4H0Z" fill="#EE4217"/>
<path d="M23.5868 23.784C21.9228 23.784 20.4827 23.4213 19.2668 22.696C18.0721 21.9707 17.1441 20.9787 16.4828 19.72C15.8214 18.4613 15.4908 17.0427 15.4908 15.464C15.4908 13.7787 15.8321 12.3173 16.5148 11.08C17.1974 9.84267 18.1468 8.88267 19.3628 8.2C20.5788 7.496 21.9868 7.144 23.5868 7.144C25.1654 7.144 26.5414 7.48533 27.7148 8.168C28.9094 8.85067 29.8374 9.78933 30.4988 10.984C31.1814 12.1787 31.5228 13.5547 31.5228 15.112C31.5228 15.3893 31.5121 15.6667 31.4908 15.944C31.4694 16.2 31.4374 16.4453 31.3948 16.68H19.6188C19.6828 17.4267 19.8748 18.088 20.1948 18.664C20.5361 19.2187 20.9841 19.656 21.5388 19.976C22.1148 20.2747 22.7654 20.424 23.4908 20.424C24.2374 20.424 24.8774 20.264 25.4108 19.944C25.9654 19.624 26.4028 19.1333 26.7228 18.472H31.1068C30.8081 19.4107 30.3281 20.2853 29.6668 21.096C29.0054 21.9067 28.1628 22.5573 27.1388 23.048C26.1361 23.5387 24.9521 23.784 23.5868 23.784ZM19.6508 13.96H27.2988C27.2774 12.8933 26.8828 12.0507 26.1148 11.432C25.3681 10.8133 24.4828 10.504 23.4588 10.504C22.5841 10.504 21.7734 10.7813 21.0268 11.336C20.2801 11.8693 19.8214 12.744 19.6508 13.96Z" fill="#EE4217"/>
<path d="M32.4102 23.4V7.528H36.4742V9.384C37.0289 8.63733 37.7649 8.08267 38.6822 7.72C39.6209 7.336 40.5596 7.144 41.4982 7.144C43.3329 7.144 44.8369 7.74133 46.0103 8.936C47.1836 10.1093 47.7702 11.816 47.7702 14.056V23.4H43.7062V14.6C43.7062 13.4053 43.3969 12.4453 42.7782 11.72C42.1809 10.9733 41.2956 10.6 40.1222 10.6C38.9489 10.6 38.0422 10.9733 37.4022 11.72C36.7836 12.4453 36.4742 13.4053 36.4742 14.6V23.4H32.4102Z" fill="#EE4217"/>
<path d="M49.099 23.4V1H53.195V23.4H49.099Z" fill="#EE4217"/>
<path d="M62.4067 23.784C60.8068 23.784 59.3774 23.4427 58.1188 22.76C56.8814 22.056 55.9108 21.0747 55.2068 19.816C54.5028 18.5573 54.1507 17.1067 54.1507 15.464C54.1507 13.736 54.5241 12.2533 55.2708 11.016C56.0388 9.75733 57.0521 8.79733 58.3108 8.136C59.5908 7.47467 60.9988 7.144 62.5348 7.144C64.1348 7.144 65.5641 7.496 66.8228 8.2C68.0814 8.88267 69.0734 9.84267 69.7988 11.08C70.5454 12.3173 70.9188 13.7787 70.9188 15.464C70.9188 17.064 70.5561 18.4933 69.8307 19.752C69.1054 21.0107 68.1028 22.0027 66.8228 22.728C65.5641 23.432 64.0921 23.784 62.4067 23.784ZM62.4708 20.232C63.3241 20.232 64.0601 20.0187 64.6787 19.592C65.3187 19.144 65.8201 18.5573 66.1828 17.832C66.5454 17.0853 66.7268 16.2747 66.7268 15.4C66.7268 14.3973 66.5241 13.544 66.1188 12.84C65.7347 12.136 65.2227 11.6027 64.5827 11.24C63.9427 10.8773 63.2388 10.696 62.4708 10.696C61.6388 10.696 60.9028 10.8987 60.2628 11.304C59.6441 11.7093 59.1534 12.2747 58.7908 13C58.4494 13.704 58.2788 14.5253 58.2788 15.464C58.2788 16.4027 58.4601 17.2347 58.8228 17.96C59.2067 18.6853 59.7188 19.2507 60.3587 19.656C60.9987 20.04 61.7028 20.232 62.4708 20.232Z" fill="#EE4217"/>
<path d="M79.7518 23.784C78.1518 23.784 76.7224 23.4427 75.4638 22.76C74.2264 22.056 73.2558 21.0747 72.5518 19.816C71.8477 18.5573 71.4958 17.1067 71.4958 15.464C71.4958 13.736 71.8691 12.2533 72.6158 11.016C73.3838 9.75733 74.3971 8.79733 75.6558 8.136C76.9358 7.47467 78.3438 7.144 79.8798 7.144C81.4798 7.144 82.9091 7.496 84.1678 8.2C85.4264 8.88267 86.4184 9.84267 87.1438 11.08C87.8904 12.3173 88.2638 13.7787 88.2638 15.464C88.2638 17.064 87.9011 18.4933 87.1758 19.752C86.4504 21.0107 85.4478 22.0027 84.1678 22.728C82.9091 23.432 81.4371 23.784 79.7518 23.784ZM79.8158 20.232C80.6691 20.232 81.4051 20.0187 82.0238 19.592C82.6637 19.144 83.1651 18.5573 83.5278 17.832C83.8904 17.0853 84.0718 16.2747 84.0718 15.4C84.0718 14.3973 83.8691 13.544 83.4638 12.84C83.0798 12.136 82.5677 11.6027 81.9277 11.24C81.2878 10.8773 80.5837 10.696 79.8158 10.696C78.9837 10.696 78.2477 10.8987 77.6077 11.304C76.9891 11.7093 76.4984 12.2747 76.1357 13C75.7944 13.704 75.6237 14.5253 75.6237 15.464C75.6237 16.4027 75.8051 17.2347 76.1678 17.96C76.5518 18.6853 77.0638 19.2507 77.7038 19.656C78.3438 20.04 79.0478 20.232 79.8158 20.232Z" fill="#EE4217"/>
<path d="M89.3528 23.4V1H93.4488V14.248L98.7288 7.528H104.009L97.0328 15.496L104.105 23.4H98.8248L93.4488 16.648V23.4H89.3528Z" fill="#EE4217"/>
</svg>
