<svg width="19" height="24" viewBox="0 0 19 24" fill="none" xmlns="http://www.w3.org/2000/svg">
<path d="M3.39619 13.1178C3.38279 13.1311 3.28026 13.5402 3.16844 14.0267C3.05661 14.5132 2.98221 14.9166 3.00298 14.9231C3.02381 14.9295 3.36152 14.9799 3.75348 15.0349C4.5406 15.1455 5.45961 15.4133 6.03437 15.6994C7.82562 16.5911 9.01168 18.1912 9.31995 20.1318L9.39847 20.626L10.9811 20.626L11.0563 20.1781C11.5486 17.2436 13.7427 15.3305 17.0262 14.9726C17.2406 14.9492 17.416 14.9213 17.416 14.9106C17.416 14.8116 17.0208 13.1717 16.9895 13.1407C16.9669 13.1183 16.7659 13.1349 16.5429 13.1778C14.0741 13.6523 12.0651 15.0111 11.2251 16.7743L11.0236 17.1972L10.9978 3.00021H9.39633L9.37047 17.1908L9.09993 16.6569C8.39813 15.2717 7.02148 14.1749 5.17366 13.5291C4.64724 13.3451 3.44708 13.0674 3.39619 13.1178Z" fill="#EE4217"/>
</svg>
