<svg width="18" height="16" viewBox="0 0 18 16" fill="none" xmlns="http://www.w3.org/2000/svg">
<path d="M10.3043 14.8116C10.3176 14.825 10.7267 14.9275 11.2132 15.0393C11.6998 15.1511 12.1031 15.2255 12.1096 15.2048C12.116 15.184 12.1664 14.8462 12.2214 14.4543C12.332 13.6672 12.5998 12.7482 12.8859 12.1734C13.7777 10.3821 15.3777 9.19608 17.3183 8.88781L17.8125 8.80929L17.8125 7.22665L17.3646 7.1515C14.4301 6.65919 12.517 4.46506 12.1591 1.18153C12.1357 0.967119 12.1078 0.791748 12.0971 0.791748C11.9981 0.791748 10.3582 1.18696 10.3272 1.21826C10.3048 1.2409 10.3215 1.4419 10.3643 1.66486C10.8389 4.13371 12.1976 6.14268 13.9608 6.98268L14.3837 7.18418L0.186737 7.20998L0.186737 8.81143L14.3774 8.8373L13.8434 9.10784C12.4582 9.80963 11.3615 11.1863 10.7156 13.0341C10.5316 13.5605 10.2539 14.7607 10.3043 14.8116Z" fill="#FAFAFA"/>
</svg>
