<svg width="40" height="40" viewBox="0 0 40 40" fill="none" xmlns="http://www.w3.org/2000/svg">
<path d="M20 13.3429C16.3143 13.3429 13.3429 16.3429 13.3429 20C13.3429 23.6571 16.3429 26.6571 20 26.6571C23.6571 26.6571 26.6571 23.6571 26.6571 20C26.6571 16.3429 23.6571 13.3429 20 13.3429ZM40 20C40 17.2286 40 14.5143 39.8571 11.7429C39.7143 8.54286 38.9714 5.68571 36.6286 3.37143C34.2857 1.02857 31.4571 0.285714 28.2571 0.142857C25.4857 -1.38368e-07 22.7714 0 20 0C17.2286 0 14.5143 -1.38368e-07 11.7429 0.142857C8.54286 0.285714 5.68571 1.02857 3.37143 3.37143C1.02857 5.71429 0.285714 8.54286 0.142857 11.7429C-1.38368e-07 14.5143 0 17.2286 0 20C0 22.7714 -1.38368e-07 25.4857 0.142857 28.2571C0.285714 31.4571 1.02857 34.3143 3.37143 36.6286C5.71429 38.9714 8.54286 39.7143 11.7429 39.8571C14.5143 40 17.2286 40 20 40C22.7714 40 25.4857 40 28.2571 39.8571C31.4571 39.7143 34.3143 38.9714 36.6286 36.6286C38.9714 34.2857 39.7143 31.4571 39.8571 28.2571C40.0286 25.5143 40 22.7714 40 20ZM20 30.2571C14.3143 30.2571 9.74286 25.6857 9.74286 20C9.74286 14.3143 14.3143 9.74286 20 9.74286C25.6857 9.74286 30.2571 14.3143 30.2571 20C30.2571 25.6857 25.6857 30.2571 20 30.2571ZM30.6857 11.7143C29.3714 11.7143 28.2857 10.6571 28.2857 9.31429C28.2857 7.97143 29.3429 6.91429 30.6857 6.91429C32.0286 6.91429 33.0857 7.97143 33.0857 9.31429C33.0929 9.62725 33.0358 9.93836 32.9179 10.2283C32.7999 10.5183 32.6236 10.781 32.4 11C32.181 11.2236 31.9183 11.3999 31.6283 11.5179C31.3384 11.6358 31.0272 11.6929 30.7143 11.6857L30.6857 11.7143Z" fill="#FAFAFA"/>
</svg>
