<svg width="40" height="40" viewBox="0 0 40 40" fill="none" xmlns="http://www.w3.org/2000/svg">
<path d="M28.1992 7.5C25.1142 7.5 22.7026 9.82333 20.5192 12.775C17.5192 8.955 15.0109 7.5 12.0092 7.5C5.88922 7.5 1.19922 15.4667 1.19922 23.8967C1.19922 29.1717 3.75088 32.5 8.02588 32.5C11.1026 32.5 13.3159 31.05 17.2509 24.1717C17.2509 24.1717 18.8909 21.2767 20.0176 19.2817C20.4131 19.9194 20.8298 20.6072 21.2676 21.345L23.1126 24.4483C26.7059 30.4617 28.7092 32.5 32.3359 32.5C36.5026 32.5 38.8192 29.1267 38.8192 23.7417C38.8192 14.9133 34.0242 7.5 28.1992 7.5ZM14.2492 22.31C11.0609 27.31 9.95755 28.4317 8.18255 28.4317C6.35422 28.4317 5.26755 26.8267 5.26755 23.965C5.26755 17.845 8.31922 11.5867 11.9576 11.5867C13.9276 11.5867 15.5742 12.7233 18.0959 16.3333C15.7009 20.0067 14.2492 22.31 14.2492 22.31ZM26.2909 21.6817L24.0826 18C23.5282 17.0946 22.9548 16.2011 22.3626 15.32C24.3509 12.2517 25.9892 10.7217 27.9409 10.7217C31.9909 10.7217 35.2326 16.6883 35.2326 24.015C35.2326 26.8083 34.3176 28.43 32.4226 28.43C30.6059 28.43 29.7392 27.23 26.2892 21.68" fill="#FAFAFA"/>
</svg>
