<svg width="40" height="40" viewBox="0 0 40 40" fill="none" xmlns="http://www.w3.org/2000/svg">
<path d="M37.4331 10C36.1497 10.5834 34.7664 10.9667 33.3331 11.15C34.7997 10.2667 35.9331 8.86669 36.4664 7.18335C35.0831 8.01669 33.5497 8.60002 31.9331 8.93335C30.6164 7.50002 28.7664 6.66669 26.6664 6.66669C22.7497 6.66669 19.5497 9.86669 19.5497 13.8167C19.5497 14.3834 19.6164 14.9334 19.7331 15.45C13.7997 15.15 8.51641 12.3 4.99974 7.98335C4.38307 9.03335 4.03307 10.2667 4.03307 11.5667C4.03307 14.05 5.28307 16.25 7.21641 17.5C6.03307 17.5 4.93307 17.1667 3.96641 16.6667V16.7167C3.96641 20.1834 6.43307 23.0834 9.69974 23.7334C8.65114 24.0216 7.5498 24.0615 6.48307 23.85C6.93575 25.2708 7.8223 26.514 9.0181 27.4049C10.2139 28.2958 11.6588 28.7895 13.1497 28.8167C10.6225 30.8175 7.48975 31.899 4.26641 31.8834C3.69974 31.8834 3.13307 31.85 2.56641 31.7834C5.73307 33.8167 9.49974 35 13.5331 35C26.6664 35 33.8831 24.1 33.8831 14.65C33.8831 14.3334 33.8831 14.0334 33.8664 13.7167C35.2664 12.7167 36.4664 11.45 37.4331 10Z" fill="#FAFAFA"/>
</svg>
